<svg width="23" height="22" viewBox="0 0 23 22" fill="none" xmlns="http://www.w3.org/2000/svg">
<path d="M17.3896 19.8499H5.60955C5.29187 19.8502 4.98326 19.7439 4.73309 19.5481C4.48291 19.3523 4.30562 19.0783 4.22955 18.7699L1.57955 8.15987C1.55369 8.05658 1.55174 7.94875 1.57383 7.84459C1.59593 7.74044 1.6415 7.64269 1.70707 7.5588C1.77264 7.47491 1.85649 7.40708 1.95223 7.36048C2.04797 7.31387 2.15307 7.28973 2.25955 7.28987H20.7396C20.846 7.28973 20.9511 7.31387 21.0469 7.36048C21.1426 7.40708 21.2265 7.47491 21.292 7.5588C21.3576 7.64269 21.4032 7.74044 21.4253 7.84459C21.4474 7.94875 21.4454 8.05658 21.4196 8.15987L18.7696 18.7699C18.6935 19.0783 18.5162 19.3523 18.266 19.5481C18.0158 19.7439 17.7072 19.8502 17.3896 19.8499V19.8499Z" stroke="#151515" stroke-width="2.5" stroke-linecap="round" stroke-linejoin="round"/>
<path d="M9.30039 2.14993L6.40039 7.28993" stroke="#151515" stroke-width="2.5" stroke-linecap="round" stroke-linejoin="round"/>
<path d="M13.3789 2.14993L16.2889 7.28993" stroke="#151515" stroke-width="2.5" stroke-linecap="round" stroke-linejoin="round"/>
</svg>
